<svg width="24" height="24" viewBox="0 0 24 24" fill="none" xmlns="http://www.w3.org/2000/svg">
<g>
<path fill-rule="evenodd" clip-rule="evenodd" d="M15 5.5C15 3.96911 16.0345 3 17 3C17.9655 3 19 3.96911 19 5.5C19 7.03089 17.9655 8 17 8C16.0345 8 15 7.03089 15 5.5ZM17 1C14.6518 1 13 3.16489 13 5.5C13 7.83511 14.6518 10 17 10C19.3482 10 21 7.83511 21 5.5C21 3.16489 19.3482 1 17 1ZM5 9.5C5 7.96911 6.0345 7 7 7C7.96551 7 9 7.96911 9 9.5C9 11.0309 7.96551 12 7 12C6.0345 12 5 11.0309 5 9.5ZM7 5C4.6518 5 3 7.16489 3 9.5C3 11.8351 4.6518 14 7 14C9.34821 14 11 11.8351 11 9.5C11 7.16489 9.34821 5 7 5ZM12.8756 15.983C12.8759 15.9825 12.8762 15.9819 12 15.5C11.1238 15.0181 11.1241 15.0175 11.1244 15.017L11.125 15.0158L11.1264 15.0133L11.1297 15.0075L11.1378 14.9933C11.1439 14.9826 11.1516 14.9696 11.1609 14.9543C11.1793 14.9237 11.2041 14.8843 11.2355 14.8372C11.2984 14.7431 11.3882 14.6182 11.5079 14.473C11.7473 14.1828 12.1083 13.8098 12.615 13.4413C13.6397 12.696 15.2194 12 17.5 12C19.7806 12 21.3603 12.696 22.3851 13.4413C22.8917 13.8098 23.2527 14.1828 23.4921 14.473C23.6118 14.6182 23.7016 14.7431 23.7645 14.8372C23.7959 14.8843 23.8207 14.9237 23.8392 14.9543L23.8498 14.972L23.8622 14.9933L23.8703 15.0075L23.8736 15.0133L23.875 15.0158L23.8756 15.017C23.8759 15.0175 23.8762 15.0181 23 15.5C22.1238 15.9819 22.1241 15.9825 22.1244 15.983L22.1249 15.984L22.1259 15.9858L22.1276 15.9888L22.1296 15.9923L22.1299 15.9928C22.1297 15.9924 22.129 15.9914 22.128 15.9896C22.1243 15.9835 22.1155 15.9692 22.1013 15.948C22.0728 15.9053 22.0229 15.835 21.9493 15.7458C21.802 15.5672 21.5614 15.3152 21.2087 15.0587C20.5147 14.554 19.3444 14 17.5 14C15.6556 14 14.4853 14.554 13.7913 15.0587C13.4386 15.3152 13.198 15.5672 13.0507 15.7458C12.9771 15.835 12.9272 15.9053 12.8987 15.948C12.8845 15.9692 12.8757 15.9835 12.8721 15.9896L12.8704 15.9923L12.8724 15.9888L12.8741 15.9858L12.8751 15.984L12.8756 15.983ZM1 19.5C1.87622 19.9819 1.87593 19.9825 1.87564 19.983L1.87508 19.984L1.87406 19.9858L1.87237 19.9888L1.87038 19.9923L1.87205 19.9896C1.87573 19.9835 1.88452 19.9692 1.89874 19.948C1.9272 19.9053 1.97708 19.835 2.05067 19.7458C2.19798 19.5672 2.43862 19.3152 2.7913 19.0587C3.48532 18.554 4.65562 18 6.5 18C8.34438 18 9.51469 18.554 10.2087 19.0587C10.5614 19.3152 10.802 19.5672 10.9493 19.7458C11.0229 19.835 11.0728 19.9053 11.1013 19.948C11.1155 19.9692 11.1243 19.9835 11.128 19.9896C11.1298 19.9926 11.1303 19.9936 11.1296 19.9923L11.1276 19.9888L11.1259 19.9858L11.1249 19.984L11.1244 19.983C11.1241 19.9825 11.1238 19.9819 12 19.5C12.8762 19.0181 12.8759 19.0175 12.8756 19.017L12.875 19.0158L12.8736 19.0133L12.8703 19.0075L12.8622 18.9933C12.8561 18.9826 12.8484 18.9696 12.8392 18.9543C12.8207 18.9237 12.7959 18.8843 12.7645 18.8372C12.7016 18.7431 12.6118 18.6182 12.4921 18.473C12.2527 18.1828 11.8917 17.8098 11.3851 17.4413C10.3603 16.696 8.78062 16 6.5 16C4.21938 16 2.63969 16.696 1.61496 17.4413C1.10826 17.8098 0.747342 18.1828 0.507927 18.473C0.388163 18.6182 0.298393 18.7431 0.235549 18.8372C0.204107 18.8843 0.179334 18.9237 0.160853 18.9543C0.15161 18.9696 0.143932 18.9826 0.137772 18.9933L0.129662 19.0075L0.126448 19.0133L0.125049 19.0158L0.124401 19.017C0.124092 19.0175 0.123788 19.0181 1 19.5Z" fill="#3E445B"/>
</g>
</svg>
